<mxfile host="app.diagrams.net" modified="2023-10-15T14:18:03.013Z" agent="Mozilla/5.0 (Windows NT 10.0; Win64; x64) AppleWebKit/537.36 (KHTML, like Gecko) Chrome/118.0.0.0 Safari/537.36" etag="FXWUcZOllQJ4xusGBsYR" version="22.0.4" type="device">
  <diagram name="Page-1" id="LX5_kg1HVEQrOpqKDcEm">
    <mxGraphModel dx="2390" dy="2502" grid="1" gridSize="10" guides="1" tooltips="1" connect="1" arrows="1" fold="1" page="1" pageScale="1" pageWidth="827" pageHeight="1169" math="0" shadow="0">
      <root>
        <mxCell id="0" />
        <mxCell id="1" parent="0" />
        <mxCell id="L3t7BHy69Arn2iJGAOFw-1" value="&lt;font style=&quot;font-size: 20px;&quot; face=&quot;Times New Roman&quot;&gt;Start&lt;/font&gt;" style="ellipse;whiteSpace=wrap;html=1;" parent="1" vertex="1">
          <mxGeometry x="347" y="-180" width="110" height="60" as="geometry" />
        </mxCell>
        <mxCell id="L3t7BHy69Arn2iJGAOFw-14" value="" style="edgeStyle=orthogonalEdgeStyle;rounded=0;orthogonalLoop=1;jettySize=auto;html=1;" parent="1" source="L3t7BHy69Arn2iJGAOFw-3" target="L3t7BHy69Arn2iJGAOFw-5" edge="1">
          <mxGeometry relative="1" as="geometry" />
        </mxCell>
        <mxCell id="L3t7BHy69Arn2iJGAOFw-3" value="&lt;font face=&quot;Times New Roman&quot; style=&quot;font-size: 20px;&quot;&gt;Clean the dataset&lt;/font&gt;" style="rounded=0;whiteSpace=wrap;html=1;" parent="1" vertex="1">
          <mxGeometry x="260" y="50" width="280" height="60" as="geometry" />
        </mxCell>
        <mxCell id="L3t7BHy69Arn2iJGAOFw-13" value="" style="edgeStyle=orthogonalEdgeStyle;rounded=0;orthogonalLoop=1;jettySize=auto;html=1;" parent="1" source="L3t7BHy69Arn2iJGAOFw-4" target="L3t7BHy69Arn2iJGAOFw-3" edge="1">
          <mxGeometry relative="1" as="geometry" />
        </mxCell>
        <mxCell id="L3t7BHy69Arn2iJGAOFw-4" value="&lt;font face=&quot;Times New Roman&quot; style=&quot;font-size: 20px;&quot;&gt;Load the dataset &lt;br&gt;with appropriate features&lt;/font&gt;" style="rounded=0;whiteSpace=wrap;html=1;" parent="1" vertex="1">
          <mxGeometry x="260" y="-70" width="280" height="60" as="geometry" />
        </mxCell>
        <mxCell id="L3t7BHy69Arn2iJGAOFw-15" value="" style="edgeStyle=orthogonalEdgeStyle;rounded=0;orthogonalLoop=1;jettySize=auto;html=1;" parent="1" source="L3t7BHy69Arn2iJGAOFw-5" target="L3t7BHy69Arn2iJGAOFw-6" edge="1">
          <mxGeometry relative="1" as="geometry" />
        </mxCell>
        <mxCell id="L3t7BHy69Arn2iJGAOFw-5" value="&lt;font face=&quot;Times New Roman&quot; style=&quot;font-size: 20px;&quot;&gt;Feed it into &lt;br&gt;Latent Diffusion Model&lt;/font&gt;" style="rounded=0;whiteSpace=wrap;html=1;" parent="1" vertex="1">
          <mxGeometry x="260" y="170" width="280" height="60" as="geometry" />
        </mxCell>
        <mxCell id="L3t7BHy69Arn2iJGAOFw-16" value="" style="edgeStyle=orthogonalEdgeStyle;rounded=0;orthogonalLoop=1;jettySize=auto;html=1;" parent="1" source="L3t7BHy69Arn2iJGAOFw-6" target="L3t7BHy69Arn2iJGAOFw-9" edge="1">
          <mxGeometry relative="1" as="geometry" />
        </mxCell>
        <mxCell id="L3t7BHy69Arn2iJGAOFw-6" value="&lt;font style=&quot;font-size: 20px;&quot; face=&quot;Times New Roman&quot;&gt;Test the accuracy &lt;br&gt;of the model&lt;/font&gt;" style="rounded=0;whiteSpace=wrap;html=1;" parent="1" vertex="1">
          <mxGeometry x="260" y="290" width="280" height="60" as="geometry" />
        </mxCell>
        <mxCell id="L3t7BHy69Arn2iJGAOFw-18" value="" style="edgeStyle=orthogonalEdgeStyle;rounded=0;orthogonalLoop=1;jettySize=auto;html=1;" parent="1" edge="1">
          <mxGeometry relative="1" as="geometry">
            <mxPoint x="399" y="660.0000000000002" as="sourcePoint" />
            <mxPoint x="399" y="720.0000000000002" as="targetPoint" />
          </mxGeometry>
        </mxCell>
        <mxCell id="L3t7BHy69Arn2iJGAOFw-8" value="&lt;font style=&quot;font-size: 20px;&quot; face=&quot;Times New Roman&quot;&gt;Use the trained model &lt;br&gt;to generate response to user&#39;s input&lt;/font&gt;" style="rounded=0;whiteSpace=wrap;html=1;" parent="1" vertex="1">
          <mxGeometry x="250" y="600" width="280" height="90" as="geometry" />
        </mxCell>
        <mxCell id="L3t7BHy69Arn2iJGAOFw-17" value="" style="edgeStyle=orthogonalEdgeStyle;rounded=0;orthogonalLoop=1;jettySize=auto;html=1;entryX=0.535;entryY=-0.001;entryDx=0;entryDy=0;entryPerimeter=0;" parent="1" source="L3t7BHy69Arn2iJGAOFw-9" target="L3t7BHy69Arn2iJGAOFw-8" edge="1">
          <mxGeometry relative="1" as="geometry" />
        </mxCell>
        <mxCell id="6Usv-g0oKhkSbp9FShT6-2" style="edgeStyle=orthogonalEdgeStyle;rounded=0;orthogonalLoop=1;jettySize=auto;html=1;exitX=0;exitY=0.5;exitDx=0;exitDy=0;entryX=0;entryY=0.5;entryDx=0;entryDy=0;" edge="1" parent="1" source="L3t7BHy69Arn2iJGAOFw-9" target="L3t7BHy69Arn2iJGAOFw-5">
          <mxGeometry relative="1" as="geometry">
            <Array as="points">
              <mxPoint x="160" y="465" />
              <mxPoint x="160" y="200" />
            </Array>
          </mxGeometry>
        </mxCell>
        <mxCell id="L3t7BHy69Arn2iJGAOFw-9" value="&lt;font face=&quot;Times New Roman&quot; style=&quot;font-size: 17px;&quot;&gt;If &lt;br&gt;accuracy&amp;gt;60&lt;/font&gt;" style="rhombus;whiteSpace=wrap;html=1;" parent="1" vertex="1">
          <mxGeometry x="335" y="400" width="130" height="130" as="geometry" />
        </mxCell>
        <mxCell id="L3t7BHy69Arn2iJGAOFw-10" value="&lt;font style=&quot;font-size: 20px;&quot; face=&quot;Times New Roman&quot;&gt;Stop&lt;/font&gt;" style="ellipse;whiteSpace=wrap;html=1;" parent="1" vertex="1">
          <mxGeometry x="345" y="720" width="110" height="60" as="geometry" />
        </mxCell>
        <mxCell id="L3t7BHy69Arn2iJGAOFw-12" value="" style="endArrow=classic;html=1;rounded=0;exitX=0.5;exitY=1;exitDx=0;exitDy=0;entryX=0.518;entryY=-0.003;entryDx=0;entryDy=0;entryPerimeter=0;" parent="1" edge="1">
          <mxGeometry width="50" height="50" relative="1" as="geometry">
            <mxPoint x="400" y="-120" as="sourcePoint" />
            <mxPoint x="400.03999999999996" y="-70.17999999999984" as="targetPoint" />
          </mxGeometry>
        </mxCell>
        <mxCell id="L3t7BHy69Arn2iJGAOFw-20" value="&lt;font style=&quot;font-size: 20px;&quot; face=&quot;Times New Roman&quot;&gt;False&lt;/font&gt;" style="text;html=1;strokeColor=none;fillColor=none;align=center;verticalAlign=middle;whiteSpace=wrap;rounded=0;" parent="1" vertex="1">
          <mxGeometry x="250" y="430" width="60" height="30" as="geometry" />
        </mxCell>
        <mxCell id="L3t7BHy69Arn2iJGAOFw-21" value="&lt;font face=&quot;Times New Roman&quot; style=&quot;font-size: 20px;&quot;&gt;True&lt;/font&gt;" style="text;html=1;align=center;verticalAlign=middle;resizable=0;points=[];autosize=1;strokeColor=none;fillColor=none;" parent="1" vertex="1">
          <mxGeometry x="405" y="540" width="60" height="40" as="geometry" />
        </mxCell>
      </root>
    </mxGraphModel>
  </diagram>
</mxfile>
